HIERARCHY
ROOT hip
{
	OFFSET 0.000000 0.000000 0.000000 
	CHANNELS 6 Xposition Yposition Zposition Xrotation Zrotation Yrotation
	JOINT abdomen
	{
		OFFSET 0.000000 3.402643 0.000000 
		CHANNELS 3 Xrotation Zrotation Yrotation
		JOINT chest
		{
			OFFSET 0.000000 8.438565 -0.680529 
			CHANNELS 3 Xrotation Zrotation Yrotation
			JOINT neck
			{
				OFFSET 0.000000 10.207942 -0.272212 
				CHANNELS 3 Xrotation Zrotation Yrotation
				JOINT head
				{
					OFFSET 0.000000 3.130431 0.000000 
					CHANNELS 3 Xrotation Zrotation Yrotation
					End Site
					{
						OFFSET 0.000000 3.130435 0.000000 
					}
				}
			}
			JOINT lCollar
			{
				OFFSET 3.470700 6.669187 -0.816635 
				CHANNELS 3 Yrotation Zrotation Xrotation
				JOINT lShldr
				{
					OFFSET 3.198488 0.000000 0.000000 
					CHANNELS 3 Zrotation Yrotation Xrotation
					JOINT lForeArm
					{
						OFFSET 10.139888 0.000000 0.000000 
						CHANNELS 3 Yrotation Zrotation Xrotation
						JOINT lHand
						{
							OFFSET 8.370511 0.000000 0.000000 
							CHANNELS 3 Zrotation Yrotation Xrotation
							End Site
							{
								OFFSET 4.083176 0.000000 0.000000 
							}
						}
					}
				}
			}
			JOINT rCollar
			{
				OFFSET -3.470700 6.669187 -0.816635 
				CHANNELS 3 Yrotation Zrotation Xrotation
				JOINT rShldr
				{
					OFFSET -3.198488 0.000000 0.000000 
					CHANNELS 3 Zrotation Yrotation Xrotation
					JOINT rForeArm
					{
						OFFSET -10.139888 0.000000 0.000000 
						CHANNELS 3 Yrotation Zrotation Xrotation
						JOINT rHand
						{
							OFFSET -8.370511 0.000000 0.000000 
							CHANNELS 3 Zrotation Yrotation Xrotation
							End Site
							{
								OFFSET -4.083176 0.000000 0.000000 
							}
						}
					}
				}
			}
		}
	}
	JOINT lThigh
	{
		OFFSET 5.308129 -1.633274 1.361059 
		CHANNELS 3 Xrotation Zrotation Yrotation
		JOINT lShin
		{
			OFFSET -2.041588 -20.007561 0.000000 
			CHANNELS 3 Xrotation Zrotation Yrotation
			JOINT lFoot
			{
				OFFSET 0.000000 -19.190928 -1.224953 
				CHANNELS 3 Xrotation Yrotation Zrotation
				End Site
				{
					OFFSET 0.000000 -2.449906 4.627600 
				}
			}
		}
	}
	JOINT rThigh
	{
		OFFSET -5.308129 -1.633274 1.361059 
		CHANNELS 3 Xrotation Zrotation Yrotation
		JOINT rShin
		{
			OFFSET 2.041588 -20.007561 0.000000 
			CHANNELS 3 Xrotation Zrotation Yrotation
			JOINT rFoot
			{
				OFFSET 0.000000 -19.190928 -1.224953 
				CHANNELS 3 Xrotation Yrotation Zrotation
				End Site
				{
					OFFSET 0.000000 -2.449906 4.627600 
				}
			}
		}
	}
}
MOTION
Frames: 6
Frame Time: 0.033333
0.495320 51.344742 0.159644 -4.969048 -11.290345 -56.515453 30.176336 5.079472 5.094173 2.389195 1.239402 3.184158 11.682497 -2.599331 -0.536111 20.505192 -7.533654 34.449577 -13.717182 -9.928248 -0.524498 -53.514580 13.311098 -17.265959 0.000000 5.000000 5.387723 -17.239538 -17.908463 11.407177 5.976594 -1.968511 0.094643 85.519600 46.619564 45.000000 140.469498 -5.000000 -45.000000 -12.455231 16.507763 -45.000000 7.272999 23.111467 8.137879 0.134060 -4.591546 -0.181390 11.273095 5.752831 -14.886168 26.239571 -8.857602 -12.604141 6.293109 0.387544 -0.029185 -9.055178 -22.937637 15.604248 
0.507166 51.334381 0.165566 -5.093815 -11.229010 -56.361675 30.157133 5.024647 5.087388 2.350693 1.278470 3.115811 11.743070 -2.671284 -0.554831 20.417953 -7.488164 34.504890 -13.502431 -9.938035 -0.525009 -53.737652 13.413244 -17.388866 0.000000 5.000000 5.367926 -17.386082 -17.877199 11.659500 6.328384 -2.105107 0.101726 85.547119 46.504414 45.000000 140.765930 -5.000000 -45.000000 -12.441240 16.508226 -45.000000 7.196095 22.987659 7.959842 0.153512 -4.590742 -0.173169 11.159327 5.836529 -14.843230 26.275078 -8.944809 -12.762572 6.353345 0.495574 -0.003124 -8.797849 -22.953600 15.245245 
0.517235 51.331127 0.169711 -5.171605 -11.183193 -56.233936 30.156361 4.992831 5.083642 2.360810 1.288229 3.106045 11.657410 -2.762547 -0.570626 20.440536 -7.379778 34.721684 -13.462065 -9.979324 -0.517668 -53.856335 13.604777 -17.617977 0.000000 5.000000 5.368858 -17.500570 -17.879843 11.834224 6.465171 -2.144141 0.103751 85.593536 46.364109 45.000000 141.151627 -5.000000 -45.000000 -12.417521 16.748087 -45.000000 7.107849 22.908110 7.777060 0.153541 -4.590413 -0.153656 11.115294 5.852508 -14.798744 26.303474 -8.993519 -12.918736 6.378790 0.543864 -0.000187 -8.739684 -22.945087 15.093863 
0.526117 51.332611 0.172671 -5.214580 -11.153216 -56.111889 30.186104 4.971343 5.108702 2.380425 1.278454 3.135337 11.473583 -2.842698 -0.578232 20.543966 -7.215163 35.033909 -13.530964 -10.037837 -0.520686 -53.900661 13.845692 -17.923317 0.000000 5.000000 5.374654 -17.587107 -17.901741 11.943779 6.445589 -2.114879 0.102234 85.641792 46.224659 45.000000 141.597748 -5.000000 -45.000000 -12.387311 17.156048 -45.000000 7.050081 22.860828 7.602626 0.153598 -4.619885 -0.162921 11.029806 5.933127 -14.756564 26.330938 -8.983496 -13.016551 6.372730 0.524839 -0.059776 -8.765255 -22.969582 15.098431 
0.533517 51.333500 0.175039 -5.257035 -11.125625 -55.999031 30.205965 4.953678 5.123756 2.410376 1.278430 3.174392 11.289989 -2.942159 -0.583413 20.651903 -7.058495 35.356049 -13.609727 -10.106103 -0.524206 -53.944458 14.102304 -18.215017 0.000000 5.000000 5.392015 -17.676979 -17.954096 12.057894 6.455639 -2.074773 0.109909 85.667702 46.060062 45.000000 142.093094 -5.000000 -45.000000 -12.331308 17.601126 -45.000000 6.970873 22.819271 7.426755 0.153627 -4.610113 -0.163084 11.025165 5.966800 -14.726848 26.374592 -8.984732 -13.097429 6.362904 0.533838 -0.079382 -8.779847 -22.952961 15.113236 
0.534995 51.332024 0.175038 -5.242185 -11.122648 -55.947304 30.180609 4.995393 5.151471 2.440692 1.288164 3.203682 11.166469 -3.083148 -0.601552 20.786186 -6.911397 35.668797 -13.737045 -10.145111 -0.526218 -54.026230 14.415502 -18.542282 0.000000 5.000000 5.412219 -17.741756 -18.131855 12.134043 6.514037 -1.967494 0.104349 85.611992 45.756668 45.000000 142.767761 -5.000000 -45.000000 -12.244521 18.129744 -45.000000 6.912887 22.830256 7.310273 0.153648 -4.619719 -0.153164 11.101150 6.028114 -14.731227 26.432329 -8.945551 -13.146358 6.245218 0.514358 -0.036315 -8.624662 -22.967354 15.153974 
